<svg width="1506" height="858" viewBox="0 0 1506 858" fill="none" xmlns="http://www.w3.org/2000/svg">
<path d="M5.08691 61.6838C6.81024 205.662 6.81024 346.052 7.20415 492.255C7.20415 513.252 7.20415 534.11 7.20415 554.579C7.20415 718.164 7.20415 854.466 7.20415 854.466" stroke="white" stroke-width="0.5" stroke-miterlimit="10"/>
<path d="M104.597 73.8094C96.5218 217.37 110.358 365.547 109.373 509.053C109.225 536.029 108.979 563.006 108.634 589.899C108.29 616.82 107.896 643.658 107.403 670.44C107.403 706.233 107.403 738.605 107.403 765.86C107.403 820.397 107.403 854.466 107.403 854.466" stroke="white" stroke-width="0.5" stroke-miterlimit="10"/>
<path d="M204.452 78.9266C193.176 225.157 207.012 369.441 207.16 513.558C207.16 541.564 207.209 569.57 207.258 597.575C207.307 653.587 207.455 709.654 207.603 765.86C207.603 820.398 207.603 854.466 207.603 854.466" stroke="white" stroke-width="0.5" stroke-miterlimit="10"/>
<path d="M304.749 75.1165C296.773 229.051 310.56 385.043 309.575 537.726C309.476 563.173 309.329 588.592 309.181 613.984C308.836 664.739 308.393 715.383 307.851 765.777C307.851 820.398 307.851 854.466 307.851 854.466" stroke="white" stroke-width="0.5" stroke-miterlimit="10"/>
<path d="M405.441 63.6305C407.213 197.875 407.213 330.45 412.285 461.523C412.285 486.72 412.137 512.14 411.891 537.559C414.107 642.434 400.32 747.727 408.001 854.494" stroke="white" stroke-width="0.5" stroke-miterlimit="10"/>
<path d="M506.427 47.2498C496.974 182.273 510.76 322.635 510.022 459.243C511.302 480.63 511.794 502.183 511.745 523.792C511.548 631.922 498.5 741.97 506.329 849.794" stroke="white" stroke-width="0.5" stroke-miterlimit="10"/>
<path d="M607.464 29.5064C600.521 174.458 614.357 314.848 611.994 457.296C611.255 482.632 610.123 507.94 608.843 533.276C603.722 634.619 596.336 736.019 601.703 837.418" stroke="white" stroke-width="0.5" stroke-miterlimit="10"/>
<path d="M708.353 13.9322C711.012 135.467 711.012 260.255 713.031 381.01C712.686 405.707 711.849 430.319 710.667 454.849C704.808 577.468 691.12 698.057 695.206 820.342" stroke="white" stroke-width="0.5" stroke-miterlimit="10"/>
<path d="M808.897 3.64207C807.617 104.263 821.453 201.74 812.984 304.808C814.067 325.555 814.313 346.274 814.018 366.966C811.851 511.834 781.028 655.506 788.02 801.653" stroke="white" stroke-width="0.5" stroke-miterlimit="10"/>
<path d="M909.145 1C911.213 41.8823 911.213 76.9798 909.933 115.804C910.032 134.91 910.13 154.017 910.229 173.123C910.327 192.229 910.376 211.307 910.425 230.413C910.524 255.861 910.573 281.308 910.622 306.727C918.107 466.974 876.698 622.939 881.474 784.632" stroke="white" stroke-width="0.5" stroke-miterlimit="10"/>
<path d="M1009.25 1.88996C1012.99 78.2313 1014.32 154.489 1014.47 230.719C1014.51 256.139 1014.42 281.53 1014.17 306.838C1021.65 463.025 959.516 615.124 976.946 772.59" stroke="white" stroke-width="0.5" stroke-miterlimit="10"/>
<path d="M1109.4 2.41838C1109.99 78.5929 1110.43 155.073 1110.68 231.637C1110.77 257.168 1110.82 282.698 1110.82 308.09C1125.2 459.104 1063.06 615.096 1075.72 769.058" stroke="white" stroke-width="0.5" stroke-miterlimit="10"/>
<path d="M1209.65 2.50182C1209.65 2.50182 1209.65 36.5704 1209.74 90.2457C1209.35 146.396 1209.05 202.63 1208.86 258.948C1208.76 287.092 1208.66 315.237 1208.56 343.16C1215.06 486.414 1173.6 630.698 1178.67 775.927" stroke="white" stroke-width="0.5" stroke-miterlimit="10"/>
<path d="M1309.84 2.50182C1309.84 2.50182 1309.84 36.5704 1309.84 91.1079C1310.29 139.249 1310.63 187.529 1310.88 235.892C1310.98 260.06 1311.08 284.256 1311.12 308.451C1318.56 466.947 1277.15 630.726 1284.68 790.973" stroke="white" stroke-width="0.5" stroke-miterlimit="10"/>
<path d="M1410.04 2.50182C1410.04 2.50182 1410.04 79.1769 1410.04 186.528C1410.04 204.41 1410.04 223.155 1410.04 242.539C1409.21 272.853 1408.76 303.584 1408.76 334.649C1415.21 494.229 1387.64 650.222 1392.47 810.274" stroke="white" stroke-width="0.5" stroke-miterlimit="10"/>
<path d="M1510.24 2.50182C1510.24 2.50182 1510.24 175.014 1510.24 364.797C1510.24 385.877 1510.24 407.153 1510.19 428.345C1511.87 560.531 1491.14 697.028 1500.25 829.603" stroke="white" stroke-width="0.5" stroke-miterlimit="10"/>
<path d="M1513 4.47639C1513 4.47639 1452.68 4.47639 1356.13 4.47639C1307.87 4.47639 1250.56 4.47639 1187.19 4.47639C1140.02 4.19828 1092.7 4.0036 1045.24 3.80893C997.774 3.64206 950.161 3.503 902.449 3.41957C704.119 6.78471 524.597 53.5629 324.395 76.9798C213.954 88.6883 110.358 76.9798 2.47729 63.3802" stroke="white" stroke-width="0.5" stroke-miterlimit="10"/>
<path d="M1513 61.2944C1513 61.2944 1452.68 61.2944 1356.13 61.2944C1307.87 61.2944 1250.56 61.2944 1187.19 60.9885C1144.06 59.0973 1101.03 57.5955 1058.09 56.4831C1015.15 55.3428 972.318 54.5641 929.481 54.0913C704.069 49.6694 510.761 112.077 282.887 131.573C186.233 139.36 96.4724 131.573 1.59082 119.503" stroke="white" stroke-width="0.5" stroke-miterlimit="10"/>
<path d="M1513 118.14C1513 118.14 1452.68 118.14 1356.13 118.14C1255.24 112.717 1154.99 108.434 1055.19 105.403C1005.26 103.901 955.429 102.733 905.798 102.204C856.018 108.184 807.715 104.29 752.47 108.184C496.975 139.36 255.364 205.662 1.19727 170.008" stroke="white" stroke-width="0.5" stroke-miterlimit="10"/>
<path d="M1513 174.958C1513 174.958 1452.68 174.958 1356.13 174.93C1255.24 168.005 1154.99 161.331 1055.19 156.019C1005.26 153.377 955.429 151.041 905.748 149.428C655.767 143.281 434.836 209.555 186.283 225.157C124.144 229.051 62.0059 221.264 1 216.758" stroke="white" stroke-width="0.5" stroke-miterlimit="10"/>
<path d="M1513 231.776C1513 231.776 1452.68 231.776 1356.18 231.498C1255.29 220.179 1154.6 210.445 1054.25 203.186C1004.08 199.571 953.952 196.567 903.927 194.398C648.874 186.166 414.156 248.546 158.71 268.042C103.465 271.935 55.1621 268.042 1.19727 261.757" stroke="white" stroke-width="0.5" stroke-miterlimit="10"/>
<path d="M1513 288.622C1513 288.622 1452.68 288.622 1356.18 287.843C1237.17 269.043 1117.23 253.775 997.085 243.791C957.054 240.453 916.974 237.728 876.895 235.614C835.289 229.051 800.773 232.972 759.364 232.972C496.974 240.759 262.257 314.848 1.68945 306.894" stroke="white" stroke-width="0.5" stroke-miterlimit="10"/>
<path d="M1513 345.44C1513 345.44 1452.68 345.44 1356.32 342.492C1235.69 322.663 1118.31 307.061 998.414 296.187C958.58 292.488 918.747 289.345 878.864 286.87C621.202 268.042 386.484 322.635 131.037 353.839C89.6284 357.733 41.2767 353.839 2.67407 354.117" stroke="white" stroke-width="0.5" stroke-miterlimit="10"/>
<path d="M1513 402.258C1470.46 400.645 1429 404.539 1387.59 400.645C1209.25 377.896 1040.46 347.025 865.324 336.179C830.316 334.01 795.012 332.647 759.265 332.397C552.219 330.45 358.911 365.547 158.66 396.751C110.308 404.539 55.1127 408.46 3.85596 405.039" stroke="white" stroke-width="0.5" stroke-miterlimit="10"/>
<path d="M1512.85 458.576C1293.4 459.048 1093.84 410.379 885.56 387.351C843.905 382.763 801.905 379.175 759.314 377.228C710.963 373.335 655.767 381.122 607.415 388.937C400.32 408.432 213.905 463.025 4.44678 459.382" stroke="white" stroke-width="0.5" stroke-miterlimit="10"/>
<path d="M1511.82 512.918C1221.86 482.91 937.211 443.335 644.639 455.321C602.836 457.046 560.885 459.799 518.737 463.832C393.377 474.734 276.043 490.336 161.91 510.916C64.96 515.811 4.59424 515.894 4.59424 515.894" stroke="white" stroke-width="0.5" stroke-miterlimit="10"/>
<path d="M1509.7 564.619C1152.87 525.433 780.043 474.734 422.428 544.317C378.655 549.184 335.08 554.218 291.652 558.751C248.224 563.284 204.894 567.345 161.713 570.293C64.9601 572.74 4.64355 572.74 4.64355 572.74" stroke="white" stroke-width="0.5" stroke-miterlimit="10"/>
<path d="M1506.89 614.623C1145.93 548.822 773.101 560.531 406.425 613.733C365.804 616.07 325.084 618.461 284.266 620.964C243.448 623.467 202.58 626.137 161.516 628.835C64.9107 629.586 4.54492 629.586 4.54492 629.586" stroke="white" stroke-width="0.5" stroke-miterlimit="10"/>
<path d="M1504.33 664.934C1325.45 630.698 1132.14 603.416 938.836 618.99C724.798 630.698 524.597 689.185 310.461 682.288C260.878 683.372 211.197 684.707 161.516 686.293C64.9601 686.376 4.64355 686.376 4.64355 686.376" stroke="white" stroke-width="0.5" stroke-miterlimit="10"/>
<path d="M1502.56 717.302C1145.98 615.096 773.15 689.185 417.455 741.692C375.061 742.665 332.421 742.916 289.731 743.083C247.042 743.222 204.304 743.277 161.516 743.222C64.9601 743.222 4.64355 743.222 4.64355 743.222" stroke="white" stroke-width="0.5" stroke-miterlimit="10"/>
<path d="M1502.17 773.035C1152.87 669.717 786.986 739.884 437.691 797.509C402.24 799.372 366.296 799.762 330.5 800.04C267.131 800.04 209.818 800.04 161.565 800.04C65.0089 800.04 4.69238 800.04 4.69238 800.04" stroke="white" stroke-width="0.5" stroke-miterlimit="10"/>
<path d="M1503.3 832.69C1339.24 802.292 1166.66 763.273 987.138 774.982C793.83 790.584 621.251 849.098 429.223 855.495C395.248 856.413 362.062 856.58 330.402 856.885C140.343 856.885 4.59424 856.885 4.59424 856.885" stroke="white" stroke-width="0.5" stroke-miterlimit="10"/>
</svg>
